<svg width="41" height="32" viewBox="0 0 41 32" fill="none" xmlns="http://www.w3.org/2000/svg">
<path d="M30.5977 27.7671C30.5977 27.7671 31.1802 28.6098 33.0354 29.7922C33.1742 29.8796 33.3199 29.9699 33.4733 30.0612C34.0558 30.4097 34.7402 30.7806 35.5489 31.165L35.7431 26.2138C35.7431 26.2138 38.2672 26.4079 40.5001 25.4371C40.2429 25.3089 39.1342 24.7119 37.5401 23.476C37.3974 23.3663 37.2488 23.2498 37.0993 23.1285C36.3945 22.5615 35.6091 21.879 34.7693 21.0684C33.5101 23.2042 30.5977 27.7671 30.5977 27.7671Z" fill="url(#paint0_linear_126_540)"/>
<path d="M10.4025 27.4751C10.4025 27.4751 9.81998 28.3178 7.96472 29.5003C7.82589 29.5876 7.68027 29.6779 7.52687 29.7692C6.94438 30.1177 6.26479 30.4886 5.45124 30.873L5.25707 25.9218C5.25707 25.9218 2.73291 26.1159 0.5 25.1451C0.75727 25.017 1.86596 24.4199 3.46006 23.184C3.60278 23.0743 3.75131 22.9578 3.90082 22.8365C4.60564 22.2695 5.39105 21.587 6.23082 20.7764C7.48998 22.9122 10.4025 27.4751 10.4025 27.4751Z" fill="url(#paint1_linear_126_540)"/>
<path fill-rule="evenodd" clip-rule="evenodd" d="M20.79 31.4549C29.476 31.4549 36.5174 24.4135 36.5174 15.7275C36.5174 7.04143 29.476 0 20.79 0C12.1039 0 5.0625 7.04143 5.0625 15.7275C5.0625 24.4135 12.1039 31.4549 20.79 31.4549ZM20.7889 27.6696C27.3838 27.6696 32.7301 22.3233 32.7301 15.7283C32.7301 9.13338 27.3838 3.78711 20.7889 3.78711C14.1939 3.78711 8.84766 9.13338 8.84766 15.7283C8.84766 22.3233 14.1939 27.6696 20.7889 27.6696Z" fill="#E36302"/>
<mask id="mask0_126_540" style="mask-type:alpha" maskUnits="userSpaceOnUse" x="5" y="0" width="32" height="32">
<path fill-rule="evenodd" clip-rule="evenodd" d="M20.79 31.4549C29.476 31.4549 36.5174 24.4135 36.5174 15.7275C36.5174 7.04143 29.476 0 20.79 0C12.1039 0 5.0625 7.04143 5.0625 15.7275C5.0625 24.4135 12.1039 31.4549 20.79 31.4549ZM20.7889 27.6696C27.3838 27.6696 32.7301 22.3233 32.7301 15.7283C32.7301 9.13338 27.3838 3.78711 20.7889 3.78711C14.1939 3.78711 8.84766 9.13338 8.84766 15.7283C8.84766 22.3233 14.1939 27.6696 20.7889 27.6696Z" fill="#6C7E92"/>
</mask>
<g mask="url(#mask0_126_540)">
<g filter="url(#filter0_f_126_540)">
<ellipse cx="14.7085" cy="4.46232" rx="5.58193" ry="10.5231" transform="rotate(42.5525 14.7085 4.46232)" fill="#FBEB93"/>
</g>
<g filter="url(#filter1_f_126_540)">
<ellipse cx="30.215" cy="4.33483" rx="3.59207" ry="10.1062" transform="rotate(150 30.215 4.33483)" fill="#F9C94D"/>
</g>
<g filter="url(#filter2_f_126_540)">
<ellipse cx="29.5481" cy="26.4257" rx="3.59207" ry="7.28123" transform="rotate(-135 29.5481 26.4257)" fill="#FEDB78"/>
</g>
<g filter="url(#filter3_f_126_540)">
<ellipse cx="11.296" cy="25.0657" rx="3.59207" ry="7.28123" transform="rotate(-45 11.296 25.0657)" fill="#FBE515"/>
</g>
</g>
<ellipse cx="20.7889" cy="15.7283" rx="11.9412" ry="11.9412" fill="url(#paint2_linear_126_540)"/>
<path fill-rule="evenodd" clip-rule="evenodd" d="M20.7935 28.543C27.871 28.543 33.6085 22.8056 33.6085 15.7281C33.6085 8.65054 27.871 2.91309 20.7935 2.91309C13.716 2.91309 7.97852 8.65054 7.97852 15.7281C7.97852 22.8056 13.716 28.543 20.7935 28.543ZM20.7928 27.6696C27.3877 27.6696 32.734 22.3233 32.734 15.7283C32.734 9.13338 27.3877 3.78711 20.7928 3.78711C14.1978 3.78711 8.85156 9.13338 8.85156 15.7283C8.85156 22.3233 14.1978 27.6696 20.7928 27.6696Z" fill="url(#paint3_linear_126_540)"/>
<path d="M23.7998 21.427C23.6366 21.4268 23.4759 21.3864 23.3319 21.3095L20.8776 20.0202C20.845 20.0031 20.8087 19.9941 20.7718 19.9941C20.735 19.9941 20.6986 20.0031 20.666 20.0202L18.2117 21.3095C18.0678 21.3864 17.9071 21.4268 17.7438 21.427C17.5974 21.4265 17.4529 21.3942 17.3203 21.3322C17.1877 21.2702 17.0702 21.1801 16.976 21.0681C16.8818 20.9561 16.813 20.825 16.7746 20.6837C16.7362 20.5425 16.729 20.3946 16.7536 20.2503L17.2225 17.5184C17.2288 17.4819 17.226 17.4444 17.2145 17.4092C17.203 17.374 17.1831 17.3422 17.1565 17.3165L15.1721 15.3816C15.038 15.2506 14.9432 15.0848 14.8984 14.9029C14.8535 14.7209 14.8604 14.53 14.9182 14.3517C14.9761 14.1735 15.0826 14.0149 15.2257 13.894C15.3689 13.773 15.5429 13.6944 15.7284 13.6671L18.4719 13.2691C18.5085 13.2636 18.5433 13.2493 18.5732 13.2275C18.6031 13.2057 18.6273 13.177 18.6438 13.1438L19.8709 10.6575C19.9539 10.4895 20.0823 10.348 20.2415 10.249C20.4007 10.1501 20.5844 10.0977 20.7718 10.0977C20.9593 10.0977 21.143 10.1501 21.3022 10.249C21.4614 10.348 21.5898 10.4895 21.6728 10.6575L22.8999 13.1438C22.9163 13.177 22.9406 13.2057 22.9705 13.2275C23.0004 13.2493 23.0351 13.2636 23.0717 13.2691L25.8153 13.6671C26.0007 13.6944 26.1748 13.773 26.3179 13.894C26.4611 14.0149 26.5676 14.1735 26.6254 14.3517C26.6833 14.53 26.6901 14.7209 26.6453 14.9029C26.6004 15.0848 26.5056 15.2506 26.3716 15.3816L24.3872 17.3165C24.3606 17.3422 24.3406 17.374 24.3291 17.4092C24.3176 17.4444 24.3149 17.4819 24.3212 17.5184L24.7901 20.2503C24.8146 20.3946 24.8074 20.5425 24.769 20.6837C24.7306 20.825 24.6619 20.9561 24.5676 21.0681C24.4734 21.1801 24.3559 21.2702 24.2233 21.3322C24.0907 21.3942 23.9462 21.4265 23.7998 21.427Z" fill="#470068"/>
<path d="M21.3252 10.8304L22.5523 13.3167C22.5967 13.4061 22.6621 13.4835 22.7429 13.5421C22.8237 13.6008 22.9176 13.639 23.0164 13.6535L25.7599 14.0525C25.8737 14.0691 25.9807 14.1171 26.0686 14.1913C26.1565 14.2654 26.222 14.3627 26.2575 14.4721C26.2931 14.5814 26.2973 14.6986 26.2698 14.8103C26.2422 14.9219 26.184 15.0237 26.1017 15.104L24.1163 17.0388C24.0448 17.1086 23.9914 17.1948 23.9607 17.2898C23.9299 17.3849 23.9227 17.486 23.9396 17.5844L24.4076 20.3173C24.4273 20.4307 24.4148 20.5473 24.3715 20.654C24.3283 20.7607 24.256 20.853 24.1629 20.9207C24.0698 20.9883 23.9595 21.0285 23.8447 21.0366C23.7299 21.0448 23.6152 21.0206 23.5134 20.9668L21.064 19.6775C20.9755 19.6307 20.8768 19.6062 20.7766 19.6062C20.6765 19.6062 20.5778 19.6307 20.4893 19.6775L18.0321 20.9668C17.9304 21.0206 17.8156 21.0448 17.7008 21.0366C17.586 21.0285 17.4758 20.9883 17.3827 20.9207C17.2895 20.853 17.2173 20.7607 17.174 20.654C17.1308 20.5473 17.1183 20.4307 17.138 20.3173L17.6059 17.5844C17.6229 17.486 17.6157 17.3849 17.5849 17.2898C17.5541 17.1948 17.5007 17.1086 17.4292 17.0388L15.4439 15.104C15.3615 15.0237 15.3033 14.9219 15.2758 14.8103C15.2482 14.6986 15.2525 14.5814 15.288 14.4721C15.3236 14.3627 15.389 14.2654 15.4769 14.1913C15.5649 14.1171 15.6718 14.0691 15.7856 14.0525L18.5292 13.6535C18.628 13.639 18.7218 13.6008 18.8026 13.5421C18.8834 13.4835 18.9488 13.4061 18.9932 13.3167L20.2204 10.8304C20.2711 10.7271 20.3497 10.6402 20.4474 10.5794C20.545 10.5186 20.6577 10.4863 20.7728 10.4863C20.8878 10.4863 21.0005 10.5186 21.0982 10.5794C21.1958 10.6402 21.2744 10.7271 21.3252 10.8304Z" fill="url(#paint4_linear_126_540)"/>
<path d="M30.2301 15.7283C30.2301 20.9426 26.0031 25.1696 20.7889 25.1696C15.5746 25.1696 11.3477 20.9426 11.3477 15.7283C11.3477 10.5141 15.5746 6.28711 20.7889 6.28711C26.0031 6.28711 30.2301 10.5141 30.2301 15.7283Z" stroke="url(#paint5_linear_126_540)" stroke-width="5"/>
<defs>
<filter id="filter0_f_126_540" x="-52.5117" y="-63.1616" width="134.44" height="135.248" filterUnits="userSpaceOnUse" color-interpolation-filters="sRGB">
<feFlood flood-opacity="0" result="BackgroundImageFix"/>
<feBlend mode="normal" in="SourceGraphic" in2="BackgroundImageFix" result="shape"/>
<feGaussianBlur stdDeviation="29.5" result="effect1_foregroundBlur_126_540"/>
</filter>
<filter id="filter1_f_126_540" x="-34.7197" y="-63.6016" width="129.87" height="135.873" filterUnits="userSpaceOnUse" color-interpolation-filters="sRGB">
<feFlood flood-opacity="0" result="BackgroundImageFix"/>
<feBlend mode="normal" in="SourceGraphic" in2="BackgroundImageFix" result="shape"/>
<feGaussianBlur stdDeviation="29.5" result="effect1_foregroundBlur_126_540"/>
</filter>
<filter id="filter2_f_126_540" x="-35.1943" y="-38.3169" width="129.485" height="129.485" filterUnits="userSpaceOnUse" color-interpolation-filters="sRGB">
<feFlood flood-opacity="0" result="BackgroundImageFix"/>
<feBlend mode="normal" in="SourceGraphic" in2="BackgroundImageFix" result="shape"/>
<feGaussianBlur stdDeviation="29.5" result="effect1_foregroundBlur_126_540"/>
</filter>
<filter id="filter3_f_126_540" x="-53.4463" y="-39.6768" width="129.485" height="129.485" filterUnits="userSpaceOnUse" color-interpolation-filters="sRGB">
<feFlood flood-opacity="0" result="BackgroundImageFix"/>
<feBlend mode="normal" in="SourceGraphic" in2="BackgroundImageFix" result="shape"/>
<feGaussianBlur stdDeviation="29.5" result="effect1_foregroundBlur_126_540"/>
</filter>
<linearGradient id="paint0_linear_126_540" x1="38.3285" y1="28.5315" x2="32.436" y2="24.4016" gradientUnits="userSpaceOnUse">
<stop stop-color="#FC0106"/>
<stop offset="0.5559" stop-color="#E82626"/>
<stop offset="0.6787" stop-color="#B90004"/>
<stop offset="1" stop-color="#790400"/>
</linearGradient>
<linearGradient id="paint1_linear_126_540" x1="3.89791" y1="27.7178" x2="7.83275" y2="24.4205" gradientUnits="userSpaceOnUse">
<stop stop-color="#FC0106"/>
<stop offset="0.493927" stop-color="#E82626"/>
<stop offset="0.716768" stop-color="#B90004"/>
<stop offset="1" stop-color="#790400"/>
</linearGradient>
<linearGradient id="paint2_linear_126_540" x1="20.7889" y1="3.78711" x2="20.7889" y2="27.6696" gradientUnits="userSpaceOnUse">
<stop stop-color="#BD49D0"/>
<stop offset="0.5" stop-color="#9703B9"/>
<stop offset="1" stop-color="#852878"/>
</linearGradient>
<linearGradient id="paint3_linear_126_540" x1="20.7935" y1="2.77859" x2="20.7935" y2="28.5301" gradientUnits="userSpaceOnUse">
<stop stop-color="#FFEE02"/>
<stop offset="0.5" stop-color="#D27003"/>
<stop offset="1" stop-color="#FBA400"/>
</linearGradient>
<linearGradient id="paint4_linear_126_540" x1="20.7744" y1="10.5905" x2="20.7744" y2="19.7693" gradientUnits="userSpaceOnUse">
<stop offset="0.0820804" stop-color="#F7E547"/>
<stop offset="0.2263" stop-color="#FEFCAF"/>
<stop offset="0.3883" stop-color="#F8DC20"/>
<stop offset="0.5895" stop-color="#E67A0B"/>
<stop offset="1" stop-color="#F8DC20"/>
</linearGradient>
<linearGradient id="paint5_linear_126_540" x1="20.7889" y1="3.78711" x2="20.7889" y2="27.6696" gradientUnits="userSpaceOnUse">
<stop stop-color="#AB2EBE"/>
<stop offset="1" stop-color="#340354"/>
</linearGradient>
</defs>
</svg>
