<svg width="212" height="50" viewBox="0 0 212 50" fill="none" xmlns="http://www.w3.org/2000/svg">
<path d="M60.7464 20.2257C60.7464 17.9945 61.3179 15.9112 62.4795 14.0123C63.6228 12.1136 65.2083 10.5831 67.2361 9.45825C69.1902 8.35246 71.3105 7.79883 73.5781 7.79883C75.8458 7.79883 77.9846 8.37066 79.9572 9.53193C81.9483 10.6753 83.5158 12.2422 84.6953 14.1963C85.8202 16.1877 86.3914 18.3262 86.3914 20.6306C86.3914 22.9355 85.8199 25.0739 84.6583 27.028C83.5155 29.001 81.948 30.5497 79.9939 31.6931C78.0397 32.8543 75.901 33.4446 73.5597 33.4446C70.8493 33.4446 68.361 32.6333 66.0927 31.0294V39.6396C65.8162 40.1002 65.1895 40.9664 64.1016 41.6301C62.7002 42.4785 61.3546 42.497 60.8016 42.4785C60.8016 35.0671 60.7646 27.6741 60.7461 20.2627V20.2257H60.7464ZM67.1069 24.355C67.7891 25.4984 68.6929 26.4198 69.8172 27.0656C70.9236 27.7657 72.1585 28.0977 73.5599 28.0977C74.961 28.0977 76.1229 27.766 77.2657 27.0838C78.409 26.4016 79.3307 25.4984 80.0311 24.3735C80.6949 23.2308 81.0266 21.9952 81.0266 20.6308C81.0266 19.267 80.6949 18.0685 80.0127 16.9251C79.3305 15.7824 78.4272 14.8601 77.3024 14.1599C76.1596 13.4962 74.924 13.164 73.5597 13.164C72.1953 13.164 70.997 13.4962 69.8539 14.1784C68.7112 14.86 67.7888 15.7639 67.1436 16.8887C66.4429 17.9945 66.1112 19.2298 66.1112 20.6308C66.1112 22.0322 66.4429 23.1938 67.1251 24.3371L67.1066 24.3553L67.1069 24.355Z" fill="white"/>
<path d="M137.818 7.79883V22.1795C137.818 24.4102 137.265 26.3649 136.177 28.1159C135.071 29.812 133.615 31.1394 131.826 32.0799C130.904 32.559 129.946 32.9095 128.95 33.1305V42.4597H127.291C125.299 42.4597 123.677 40.8372 123.677 38.8461V33.2412C122.534 33.0201 121.446 32.6327 120.395 32.0984C118.589 31.1394 117.151 29.8305 116.044 28.1344C114.938 26.3828 114.403 24.4287 114.403 22.1981V7.81731H116.357C118.201 7.81731 119.694 9.31087 119.694 11.1543V22.1983C119.694 24.0418 120.34 25.4799 121.594 26.5308C122.515 27.3051 123.585 27.8027 124.82 28.0058C124.857 28.0058 124.893 28.0243 124.93 28.0058C125.096 28.0428 125.299 28.0798 125.483 28.0613C125.557 28.0798 125.631 28.0798 125.705 28.0613C125.815 28.0798 125.926 28.0798 126.055 28.0798H126.239C126.369 28.0798 126.497 28.0798 126.608 28.0613C126.663 28.0613 126.719 28.0613 126.774 28.0613C126.977 28.0613 127.18 28.0243 127.364 27.9873C127.548 27.9503 127.751 27.9319 127.936 27.8949C128.968 27.6553 129.872 27.1757 130.665 26.5123C131.936 25.4429 132.564 24.0236 132.564 22.1799V11.2468C132.564 9.34815 134.093 7.79911 136.011 7.79911H137.854H137.818V7.79883Z" fill="white"/>
<path d="M159.327 31.0099C157.06 32.6138 154.571 33.4252 151.86 33.4252C149.556 33.4252 147.416 32.8536 145.462 31.6921C143.49 30.5487 141.942 28.9818 140.798 26.9907C139.637 25.0732 139.047 22.9345 139.047 20.6117C139.047 18.2888 139.618 16.1683 140.779 14.2141C141.923 12.2415 143.508 10.674 145.481 9.51273C147.731 8.20382 150.201 7.65047 152.911 7.85331C154.533 7.96369 156.137 8.42484 157.595 9.14374C159.861 10.2865 161.65 11.9092 162.94 14.0107C164.102 15.9284 164.692 18.0117 164.692 20.2424L164.655 29.0918C164.655 31.4147 162.756 33.2957 160.452 33.2957H159.345V31.0278L159.327 31.0093V31.0099ZM158.424 17.0903C157.741 15.8553 156.783 14.8781 155.603 14.1405C154.423 13.4583 153.132 13.1266 151.731 13.145C150.552 13.145 149.389 13.4767 148.357 14.0483C147.104 14.7305 146.145 15.6892 145.444 16.8877C144.744 18.0126 144.393 19.2845 144.393 20.7041C144.393 21.8838 144.708 23.0824 145.279 24.1151C145.96 25.3685 146.919 26.3457 148.118 27.0461C149.243 27.7653 150.533 28.1155 151.971 28.0788C153.151 28.0603 154.33 27.7468 155.363 27.175C156.616 26.4928 157.595 25.5341 158.331 24.3361C159.014 23.1558 159.346 21.8472 159.327 20.4279C159.308 19.266 158.995 18.086 158.424 17.0721V17.0906L158.424 17.0903Z" fill="white"/>
<path d="M206.381 31.0118C204.113 32.6158 201.623 33.4271 198.913 33.4271C196.608 33.4271 194.47 32.8556 192.516 31.694C190.544 30.5507 188.994 28.9837 187.852 26.9926C186.69 25.0752 186.1 22.9364 186.1 20.6136C186.1 18.2908 186.671 16.1702 187.833 14.2161C188.975 12.2435 190.561 10.676 192.534 9.51469C194.783 8.20577 197.253 7.65242 199.964 7.85526C201.587 7.96564 203.19 8.4268 204.647 9.14569C206.915 10.2885 208.703 11.9112 209.994 14.0127C211.155 15.9304 211.745 18.0137 211.745 20.2443L211.709 29.0938C211.709 31.4166 209.81 33.2977 207.505 33.2977H206.398V31.0297L206.38 31.0112L206.381 31.0118ZM205.477 17.0922C204.795 15.8573 203.836 14.8801 202.656 14.1424C201.476 13.4602 200.186 13.1285 198.784 13.147C197.605 13.147 196.443 13.4787 195.411 14.0502C194.157 14.7324 193.198 15.6912 192.498 16.8897C191.796 18.0146 191.447 19.2865 191.447 20.706C191.447 21.8858 191.76 23.0844 192.332 24.1171C193.014 25.3705 193.972 26.3477 195.171 27.0481C196.315 27.7673 197.605 28.1175 199.025 28.0808C200.205 28.0623 201.385 27.7488 202.417 27.177C203.671 26.4948 204.647 25.536 205.385 24.3381C206.067 23.1577 206.398 21.8491 206.381 20.4298C206.362 19.268 206.049 18.0879 205.477 17.074V17.0925L205.477 17.0922Z" fill="white"/>
<path d="M107.858 31.0118C105.59 32.6158 103.102 33.4271 100.391 33.4271C98.0865 33.4271 95.9483 32.8556 93.9941 31.694C92.0209 30.5507 90.4725 28.9837 89.3291 26.9926C88.1679 25.0752 87.5781 22.9364 87.5781 20.6136C87.5781 18.2908 88.1497 16.1702 89.3106 14.2161C90.454 12.2435 92.0394 10.676 94.0121 9.51469C96.2618 8.20577 98.7317 7.65242 101.443 7.85526C103.065 7.96564 104.669 8.4268 106.125 9.14569C108.393 10.2885 110.181 11.9112 111.472 14.0127C112.634 15.9304 113.223 18.0137 113.223 20.2443L113.186 29.0938C113.186 31.4166 111.288 33.2977 108.983 33.2977H107.876V31.0297L107.858 31.0112L107.858 31.0118ZM106.955 17.0922C106.273 15.8573 105.314 14.8801 104.134 14.1424C102.954 13.4602 101.664 13.1285 100.263 13.147C99.0828 13.147 97.9212 13.4787 96.8885 14.0502C95.6351 14.7324 94.6758 15.6912 93.9759 16.8897C93.2753 18.0146 92.9248 19.2865 92.9248 20.706C92.9248 21.8858 93.2383 23.0844 93.8095 24.1171C94.4917 25.3705 95.4504 26.3477 96.649 27.0481C97.7917 27.7673 99.0827 28.1175 100.502 28.0808C101.682 28.0623 102.862 27.7488 103.894 27.177C105.148 26.4948 106.126 25.536 106.863 24.3381C107.545 23.1577 107.877 21.8491 107.858 20.4298C107.84 19.268 107.527 18.0879 106.955 17.074V17.0925V17.0922Z" fill="white"/>
<path d="M179.11 11.9089V13.2733H172.031C169.173 13.2733 166.868 10.9689 166.868 8.11099C166.868 7.92693 167.016 7.7793 167.199 7.7793H186.135C186.32 7.7793 186.466 7.92693 186.466 8.11099V9.84409C186.466 10.895 186.116 11.9274 185.489 12.7751L173.1 29.11V27.7456H181.894C184.679 27.7456 186.946 30.0132 186.946 32.7972V33.0552C186.946 33.2399 186.798 33.387 186.614 33.387H166.464C166.278 33.387 166.132 33.2396 166.132 33.0552V31.0826C166.132 29.7182 166.574 28.3908 167.403 27.3029L179.129 11.9086H179.11V11.9089Z" fill="white"/>
<path d="M25.0001 50C11.1911 50 0 38.8089 0 25C0 11.1911 11.1911 0 25.0001 0C38.8096 0 50.0008 11.1911 50.0008 25C50.0008 38.8089 38.8096 50 25.0001 50Z" fill="#58FA5A"/>
<path d="M40.5381 40.8916C39.7082 35.803 37.8463 32.6873 34.8782 31.3966C30.8038 29.608 25.9917 31.8942 21.3458 34.1069C20.2579 34.6229 18.5618 35.4343 17.0682 35.9873C16.2205 36.3006 15.4273 35.4158 15.8333 34.6044C17.3448 31.5809 20.5162 26.898 24.443 22.8236C27.1718 19.9842 30.3429 17.514 33.8831 15.4122L33.9198 24.9809C33.9198 26.7503 35.3576 28.1702 37.1277 28.1702H38.3811C38.9347 28.1702 39.3768 27.7097 39.3768 27.1745L39.3034 8.73817C39.3034 8.18484 38.8608 7.74219 38.3074 7.74219H18.7831C18.2301 7.74219 17.7874 8.20332 17.7874 8.75665V9.69688C17.7874 11.6325 19.3543 13.1995 21.2906 13.1995H27.3379C24.8671 14.9695 22.5998 16.9243 20.5347 19.0624C17.5112 22.1969 14.4507 26.1976 12.3119 29.7739C10.3393 33.0745 8.03494 37.7756 10.5603 40.5044C10.8374 40.7994 11.1506 41.0574 11.5563 41.2785C14.9485 43.1962 19.2073 41.1681 23.7062 39.0293C26.9137 37.4994 30.9145 35.6002 32.7215 36.393C33.5514 36.7617 34.2706 37.9784 34.7863 39.8777C34.9522 40.4674 35.192 40.9101 35.6529 41.3522C36.4273 42.0898 37.4966 42.2375 38.2895 42.2375C38.7686 42.182 39.2482 42.108 39.7088 42.0528C40.2621 41.9795 40.6493 41.4631 40.5571 40.91L40.5387 40.8916H40.5381Z" fill="#360E54"/>
</svg>
